<svg width="231" height="83" viewBox="0 0 231 83" fill="none" xmlns="http://www.w3.org/2000/svg">
<rect x="0.726562" y="0.757812" width="230" height="82" rx="10" fill="url(#paint0_linear)"/>
<path d="M106.775 45.248V54.7578H102.328V29.1641H112.119C114.979 29.1641 117.246 29.9082 118.922 31.3965C120.609 32.8848 121.453 34.8535 121.453 37.3027C121.453 39.8105 120.627 41.7617 118.975 43.1562C117.334 44.5508 115.031 45.248 112.066 45.248H106.775ZM106.775 41.6797H112.119C113.701 41.6797 114.908 41.3105 115.74 40.5723C116.572 39.8223 116.988 38.7441 116.988 37.3379C116.988 35.9551 116.566 34.8535 115.723 34.0332C114.879 33.2012 113.719 32.7734 112.242 32.75H106.775V41.6797ZM134.76 44.8965H129.803V54.7578H125.355V29.1641H134.355C137.309 29.1641 139.588 29.8262 141.193 31.1504C142.799 32.4746 143.602 34.3906 143.602 36.8984C143.602 38.6094 143.186 40.0449 142.354 41.2051C141.533 42.3535 140.385 43.2383 138.908 43.8594L144.656 54.5293V54.7578H139.893L134.76 44.8965ZM129.803 41.3281H134.373C135.873 41.3281 137.045 40.9531 137.889 40.2031C138.732 39.4414 139.154 38.4043 139.154 37.0918C139.154 35.7207 138.762 34.6602 137.977 33.9102C137.203 33.1602 136.043 32.7734 134.496 32.75H129.803V41.3281ZM162.779 43.332H152.268V51.207H164.555V54.7578H147.82V29.1641H164.432V32.75H152.268V39.8164H162.779V43.332ZM177.193 49.1855L183.697 29.1641H188.584L179.373 54.7578H175.066L165.891 29.1641H170.76L177.193 49.1855Z" fill="white"/>
<path d="M42.6 39.99C41.6237 40.9664 41.6237 42.5493 42.6 43.5256L58.5099 59.4355C59.4862 60.4118 61.0692 60.4118 62.0455 59.4355C63.0218 58.4592 63.0218 56.8763 62.0455 55.8999L47.9033 41.7578L62.0455 27.6157C63.0218 26.6394 63.0218 25.0565 62.0455 24.0801C61.0692 23.1038 59.4862 23.1038 58.5099 24.0801L42.6 39.99ZM80.6836 39.2578H44.3678V44.2578H80.6836V39.2578Z" fill="white"/>
<defs>
<linearGradient id="paint0_linear" x1="15.2141" y1="8.18538" x2="61.2299" y2="238.215" gradientUnits="userSpaceOnUse">
<stop stop-color="#3A7BD5"/>
</linearGradient>
</defs>
</svg>
