<svg width="231" height="83" viewBox="0 0 231 83" fill="none" xmlns="http://www.w3.org/2000/svg">
<rect x="0.0493164" y="0.297852" width="230" height="82" rx="10" fill="url(#paint0_linear)"/>
<path d="M121.953 54.2979H117.506L106.098 36.1396V54.2979H101.651V28.7041H106.098L117.541 46.9326V28.7041H121.953V54.2979ZM142.168 42.8721H131.656V50.7471H143.944V54.2979H127.209V28.7041H143.821V32.29H131.656V39.3564H142.168V42.8721ZM156.371 37.9502L161.75 28.7041H166.883L159.149 41.3955L167.059 54.2979H161.873L156.371 44.9111L150.852 54.2979H145.684L153.612 41.3955L145.86 28.7041H150.992L156.371 37.9502ZM188.838 32.29H180.858V54.2979H176.446V32.29H168.535V28.7041H188.838V32.29Z" fill="white"/>
<path d="M81.7737 43.0656C82.7501 42.0893 82.7501 40.5064 81.7737 39.5301L65.8638 23.6202C64.8875 22.6439 63.3046 22.6439 62.3283 23.6202C61.352 24.5965 61.352 26.1794 62.3283 27.1557L76.4704 41.2979L62.3283 55.44C61.352 56.4163 61.352 57.9992 62.3283 58.9755C63.3046 59.9518 64.8875 59.9518 65.8638 58.9755L81.7737 43.0656ZM43.6902 43.7979H80.006V38.7979H43.6902V43.7979Z" fill="white"/>
<defs>
<linearGradient id="paint0_linear" x1="14.5369" y1="7.72542" x2="60.5526" y2="237.755" gradientUnits="userSpaceOnUse">
<stop stop-color="#3A7BD5"/>
</linearGradient>
</defs>
</svg>
